<svg width="330" height="83" fill="none" xmlns="http://www.w3.org/2000/svg"><path d="M117.291 28.155h10.028l18.232 36.075h-10.028l-18.232-36.075z" fill="#FDFDFF"/><path d="M120.635 44.286h-10.027l-10.028 19.65h10.028l10.027-19.65z" fill="url(#prefix__paint0_radial)"/><path d="M82.045 25.223L65.028 41.647 43.15 62.763 30.387 50.74 20.056 61.004 43.15 83l49.226-47.512-10.331-10.265z" fill="url(#prefix__paint1_radial)"/><path d="M28.564 48.979l-7.597-7.332 22.182-21.41 20.055 19.357 10.636-9.972L43.15 0 0 41.647l18.232 17.597 10.332-10.265zM229.42 48.686l-.303-.294V64.23h11.243V38.42l-10.94 10.266z" fill="#FDFDFF"/><path d="M240.36 31.088h-11.243v10.559l11.243-10.559z" fill="url(#prefix__paint2_radial)"/><path d="M245.828 37.54v26.69h10.028V44.58h15.193c1.823 0 3.343 1.466 3.343 3.226V64.23h10.331V48.099c0-5.866-4.862-10.558-10.939-10.558h-27.956zM174.724 46.926h-17.928c-.608 0-1.215-.587-1.215-1.173 0-.587.607-1.173 1.215-1.173h26.133v-7.92h-27.044c-5.166 0-9.116 3.814-9.116 8.8 0 4.985 3.95 8.798 9.116 8.798h16.712c.912 0 1.52.88 1.52 1.466 0 .587-.608 1.467-1.52 1.467h-25.828l3.646 7.039h24.613c4.862 0 8.812-3.813 8.812-8.506 0-4.692-4.254-8.798-9.116-8.798zM216.05 46.926c-.304 0-.304 0 0 0h-17.928c-.608 0-1.216-.587-1.216-1.173 0-.587.608-1.173 1.216-1.173h26.132v-7.92H197.21c-5.165 0-9.116 3.814-9.116 8.8 0 4.985 3.951 8.798 9.116 8.798H213.923c.912 0 1.519.88 1.519 1.466 0 .587-.607 1.467-1.519 1.467h-25.829v7.039h27.956c4.862 0 8.812-3.813 8.812-8.506 0-4.692-3.95-8.798-8.812-8.798z" fill="#FDFDFF"/><path d="M283.508 37.247l18.536 23.757-2.734 2.932c-1.216 1.173-2.735 2.053-4.255 2.053l-7.9.294v7.625h10.635c3.343 0 6.078-1.466 8.205-3.813l7.292-9.091-18.839-23.17h-10.94v-.587z" fill="#FDFDFF"/><path d="M319.364 36.954l-9.42 11.732 6.077 6.452 13.978-18.184h-10.635z" fill="url(#prefix__paint3_radial)"/><defs><radialGradient id="prefix__paint0_radial" cx="0" cy="0" r="1" gradientUnits="userSpaceOnUse" gradientTransform="matrix(-18.4274 6.36593 -9.07044 -26.2561 119.436 48.693)"><stop stop-color="#F307FE"/><stop offset="0" stop-color="#F307FE"/><stop offset=".24" stop-color="#F307FE"/><stop offset="1" stop-color="#0AD2DF"/></radialGradient><radialGradient id="prefix__paint1_radial" cx="0" cy="0" r="1" gradientUnits="userSpaceOnUse" gradientTransform="matrix(-66.44994 18.71829 -22.55259 -80.0617 88.05 38.18)"><stop stop-color="#F307FE"/><stop offset="0" stop-color="#F307FE"/><stop offset=".24" stop-color="#F307FE"/><stop offset="1" stop-color="#0AD2DF"/></radialGradient><radialGradient id="prefix__paint2_radial" cx="0" cy="0" r="1" gradientUnits="userSpaceOnUse" gradientTransform="rotate(161.68 117.146 36.053) scale(10.882 14.991)"><stop stop-color="#F307FE"/><stop offset="0" stop-color="#F307FE"/><stop offset=".24" stop-color="#F307FE"/><stop offset="1" stop-color="#0AD2DF"/></radialGradient><radialGradient id="prefix__paint3_radial" cx="0" cy="0" r="1" gradientUnits="userSpaceOnUse" gradientTransform="matrix(-18.42731 5.89083 -7.888 -24.67475 328.8 41.032)"><stop stop-color="#F307FE"/><stop offset="0" stop-color="#F307FE"/><stop offset=".24" stop-color="#F307FE"/><stop offset="1" stop-color="#0AD2DF"/></radialGradient></defs></svg>
